# xmcd CD database file
#
# Track frame offsets:
#	600
#	14721
#	37369
#	53963
#	65870
#	85036
#	98480
#	111806
#	131003
#	141680
#	165796
#	181026
#	192548
#	209303
#
# Disc length: 2946 seconds
#
# Revision: 1
# Processed by: cddbd v1.5.2PL0 Copyright (c) Steve Scherf et al.
# Submitted via: CDex 2.02
#
DISCID=d40b7a0e
DTITLE=The Marcy Levi Band - The Upside of Being Down
DYEAR=1900
DGENRE=Blues
TTITLE0=Tell Me
TTITLE1=Happiness
TTITLE2=Lay Down Sally
TTITLE3=I Just Wanna Feel Good
TTITLE4=The Upside of Being Down....
TTITLE5=Forget About Me
TTITLE6=Sugar Daddy
TTITLE7=Singin' the Blues
TTITLE8=Hold to Your Money
TTITLE9=Love Yourself
TTITLE10=Cotton Candy
TTITLE11=Short, Sharp, Shot
TTITLE12=Ugly Man Blues
TTITLE13=Jellyroll Blues
EXTD=
EXTT0=
EXTT1=
EXTT2=
EXTT3=
EXTT4=
EXTT5=
EXTT6=
EXTT7=
EXTT8=
EXTT9=
EXTT10=
EXTT11=
EXTT12=
EXTT13=
PLAYORDER=
